<?xml version="1.0" encoding="utf-8"?>
<!-- Generator: Adobe Illustrator 24.1.2, SVG Export Plug-In . SVG Version: 6.00 Build 0)  -->
<svg version="1.1" xmlns="http://www.w3.org/2000/svg" xmlns:xlink="http://www.w3.org/1999/xlink" x="0px" y="0px"
	 viewBox="0 0 300 300" style="enable-background:new 0 0 300 300;" xml:space="preserve">
<style type="text/css">
	.st0{fill:#140F4B;}
	.st1{fill:#FFFFFF;}
	.st2{display:none;}
</style>
<g id="Layer_1">
	<circle class="st0" cx="150" cy="151" r="130"/>
	<path class="st1" d="M220.3,80.3c-8.8-8.8-95.1,18.9-109.1,30.9s-11,39-11,39c-13-6-47-4-47,1s47,21,47,21
		c-1.7,5.2,23.6,30.6,28.8,28.8c0,0,16,47,21,47s7-34,1-47c0,0,27,3,39-11S230.5,90.5,220.3,80.3z M159,156c-8.3,0-15-6.7-15-15
		c0-8.3,6.7-15,15-15s15,6.7,15,15C174,149.3,167.3,156,159,156z M187,129c-8.3,0-15-6.7-15-15c0-8.3,6.7-15,15-15s15,6.7,15,15
		C202,122.3,195.3,129,187,129z"/>
	<path class="st1" d="M115.8,207c-1.4,9.1-12.8,17-18.8,16s-20,0-20,0s1-12,1-19s6.5-16.8,15-18.6C93.8,197.4,103.7,206.9,115.8,207
		z"/>
</g>
<g id="Layer_2" class="st2">
	
		<image style="display:inline;overflow:visible;" width="225" height="225" xlink:href="6737123A.jpg"  transform="matrix(0.3111 0 0 0.3025 -76 83)">
	</image>
	
		<image style="display:inline;overflow:visible;" width="225" height="225" xlink:href="6737123E.jpg"  transform="matrix(0.2912 0 0 0.2912 -74 165)">
	</image>
</g>
</svg>
